<svg width="94.853516mm" height="18.832336mm" viewBox="0 0 94.853516 18.832336" version="1.1" id="svg5"
  xml:space="preserve" xmlns="http://www.w3.org/2000/svg" xmlns:svg="http://www.w3.org/2000/svg">
  <defs id="defs2">
    <clipPath clipPathUnits="userSpaceOnUse" id="clipPath691">
      <path d="M 0,841.92 H 595.2 V 0 H 0 Z" id="path689" />
    </clipPath>
  </defs>
  <g id="g685" transform="matrix(0.35277776,0,0,-0.35277778,-57.409049,242.11174)">
    <g id="g687" clip-path="url(#clipPath691)">
      <g id="g693" transform="translate(394.5155,675.676)">
        <path
          d="M 0,0 C -0.077,0.063 -0.141,0.115 -0.206,0.168 -0.27,0.063 -0.356,-0.038 -0.386,-0.148 -0.397,-0.187 -0.27,-0.251 -0.206,-0.303 -0.136,-0.201 -0.067,-0.098 0,0 m 7.6,-2.891 c 0.064,-0.053 0.143,-0.156 0.19,-0.148 0.137,0.025 0.26,0.096 0.388,0.148 -0.064,0.052 -0.142,0.156 -0.19,0.147 C 7.853,-2.769 7.729,-2.839 7.6,-2.891 M -214.355,-3.43 c 0.077,-0.063 0.141,-0.115 0.205,-0.167 0.064,0.104 0.15,0.205 0.181,0.316 0.011,0.039 -0.117,0.102 -0.181,0.155 -0.069,-0.103 -0.139,-0.205 -0.205,-0.304 M 6.649,-3.665 C 6.572,-3.728 6.508,-3.78 6.444,-3.832 c 0.128,-0.053 0.252,-0.123 0.388,-0.147 0.048,-0.009 0.126,0.094 0.19,0.147 -0.125,0.056 -0.251,0.113 -0.373,0.167 m -9.952,-0.706 c 0.078,-0.063 0.142,-0.115 0.206,-0.167 0.064,0.104 0.15,0.205 0.181,0.316 0.011,0.038 -0.117,0.102 -0.181,0.154 -0.069,-0.102 -0.138,-0.204 -0.206,-0.303 M -212.788,-8.47 c -0.077,0.063 -0.141,0.115 -0.205,0.167 -0.065,-0.104 -0.151,-0.205 -0.181,-0.315 -0.011,-0.039 0.116,-0.103 0.181,-0.155 0.069,0.102 0.138,0.204 0.205,0.303 M 10.408,-9.076 c -0.067,0.098 -0.136,0.201 -0.205,0.303 -0.065,-0.052 -0.192,-0.116 -0.181,-0.155 0.03,-0.111 0.116,-0.211 0.181,-0.316 0.064,0.052 0.128,0.105 0.205,0.168 m -213.366,-2.353 c -0.067,0.098 -0.136,0.201 -0.205,0.303 -0.065,-0.052 -0.192,-0.116 -0.181,-0.155 0.03,-0.11 0.116,-0.211 0.181,-0.316 0.064,0.053 0.128,0.105 0.205,0.168 m -1.567,-2.688 c 0.066,-0.098 0.135,-0.201 0.205,-0.303 0.064,0.052 0.191,0.116 0.181,0.155 -0.03,0.111 -0.117,0.211 -0.181,0.316 -0.064,-0.053 -0.129,-0.105 -0.205,-0.168 M 19.66,-15.058 c -0.078,0.063 -0.142,0.115 -0.206,0.167 -0.064,-0.104 -0.15,-0.205 -0.181,-0.315 -0.01,-0.039 0.117,-0.103 0.181,-0.155 0.069,0.102 0.139,0.204 0.206,0.303 m -2.313,-0.941 c -0.078,0.063 -0.142,0.115 -0.206,0.168 -0.064,-0.105 -0.15,-0.205 -0.181,-0.316 -0.01,-0.039 0.117,-0.103 0.181,-0.155 0.069,0.102 0.139,0.205 0.206,0.303 m -8.218,-1.647 c 0.078,0.063 0.142,0.115 0.206,0.167 -0.128,0.053 -0.252,0.123 -0.388,0.148 -0.048,0.008 -0.126,-0.095 -0.19,-0.148 0.126,-0.056 0.251,-0.112 0.372,-0.167 m -8.178,-0.538 c 0.064,0.052 0.191,0.116 0.181,0.154 -0.031,0.111 -0.117,0.212 -0.181,0.316 -0.065,-0.052 -0.191,-0.116 -0.181,-0.154 0.03,-0.111 0.116,-0.212 0.181,-0.316 m 17.141,-0.168 c 0.067,-0.099 0.136,-0.201 0.206,-0.303 0.064,0.052 0.191,0.116 0.181,0.155 -0.031,0.11 -0.117,0.211 -0.181,0.316 -0.065,-0.053 -0.129,-0.105 -0.206,-0.168 m -29.779,-3.194 c -0.121,-0.054 -0.247,-0.111 -0.372,-0.168 0.064,-0.052 0.142,-0.155 0.19,-0.147 0.136,0.025 0.259,0.095 0.388,0.147 -0.064,0.053 -0.129,0.105 -0.206,0.168 m -12.888,-1.746 c 0.121,0.054 0.247,0.11 0.373,0.167 -0.064,0.052 -0.143,0.156 -0.19,0.147 -0.136,-0.025 -0.26,-0.095 -0.388,-0.147 0.064,-0.053 0.128,-0.105 0.205,-0.167 m -11.108,-1.177 c 0.067,-0.099 0.136,-0.201 0.206,-0.303 0.064,0.052 0.191,0.116 0.18,0.155 -0.03,0.11 -0.116,0.211 -0.18,0.315 -0.065,-0.052 -0.129,-0.104 -0.206,-0.167 m -175.782,-2.823 c 0.068,-0.099 0.137,-0.201 0.206,-0.304 0.064,0.053 0.192,0.116 0.181,0.155 -0.03,0.111 -0.117,0.211 -0.181,0.316 -0.064,-0.052 -0.128,-0.105 -0.206,-0.167 m 0.29,-3.195 c -0.122,-0.054 -0.247,-0.11 -0.373,-0.167 0.065,-0.052 0.143,-0.156 0.19,-0.147 0.136,0.025 0.26,0.095 0.388,0.147 -0.064,0.052 -0.128,0.105 -0.205,0.167 m 114.778,-0.099 c 0.067,-0.099 0.136,-0.201 0.205,-0.304 0.065,0.053 0.192,0.117 0.181,0.155 -0.03,0.111 -0.116,0.212 -0.181,0.316 -0.064,-0.052 -0.128,-0.104 -0.205,-0.167 m -109.163,-0.371 c -0.077,-0.063 -0.141,-0.115 -0.206,-0.168 0.129,-0.052 0.253,-0.122 0.388,-0.147 0.048,-0.009 0.126,0.095 0.19,0.147 -0.125,0.057 -0.251,0.113 -0.372,0.168 m -15.034,-1.276 c 0.121,0.054 0.247,0.111 0.373,0.167 -0.064,0.053 -0.143,0.156 -0.19,0.147 -0.136,-0.024 -0.26,-0.094 -0.389,-0.147 0.065,-0.052 0.129,-0.105 0.206,-0.167 m 23.418,0.235 c -0.077,0.063 -0.141,0.115 -0.205,0.168 -0.064,-0.105 -0.151,-0.205 -0.181,-0.316 -0.011,-0.039 0.116,-0.103 0.181,-0.155 0.069,0.102 0.138,0.205 0.205,0.303 m -22.547,17.667 c -0.005,0.1 -0.01,0.199 -0.015,0.298 -0.258,0.028 -0.515,0.068 -0.773,0.075 -0.063,0.002 -0.197,-0.114 -0.185,-0.149 0.04,-0.111 0.127,-0.294 0.207,-0.297 0.252,-0.013 0.51,0.044 0.766,0.073 m 13.959,0.617 c -0.387,0.338 -0.773,0.338 -1.16,0 0.387,-0.338 0.773,-0.338 1.16,0 M -4.253,-3.598 c 0.415,0.314 0.415,0.628 0,0.943 -0.415,-0.315 -0.415,-0.629 0,-0.943 M 3.842,5.85 C 3.468,5.423 3.299,5.124 3.927,4.929 4.24,5.204 4.221,5.465 3.842,5.85 m -224.721,-26.298 c -0.005,0.1 -0.011,0.199 -0.016,0.298 -0.257,0.028 -0.514,0.067 -0.772,0.075 -0.063,0.002 -0.198,-0.114 -0.185,-0.149 0.039,-0.111 0.127,-0.294 0.206,-0.298 0.253,-0.012 0.511,0.045 0.767,0.074 m 1.813,-7.383 c 0.387,-0.338 0.772,-0.338 1.159,0 -0.387,0.338 -0.772,0.338 -1.159,0 m 1.656,-1.557 c -0.005,0.099 -0.01,0.198 -0.015,0.298 -0.258,0.027 -0.515,0.067 -0.773,0.075 -0.063,0.002 -0.197,-0.115 -0.185,-0.15 0.04,-0.111 0.127,-0.293 0.207,-0.297 0.252,-0.012 0.51,0.044 0.766,0.074 m 15.647,-2.207 c 0.526,-0.305 0.893,-0.442 1.133,0.069 -0.338,0.255 -0.659,0.239 -1.133,-0.069 m 2.826,0.17 c -0.122,-0.005 -0.244,-0.01 -0.366,-0.015 -0.034,-0.209 -0.082,-0.417 -0.092,-0.626 -0.002,-0.051 0.14,-0.161 0.184,-0.15 0.136,0.031 0.36,0.102 0.365,0.167 0.015,0.206 -0.054,0.416 -0.091,0.624 M 3.892,0.229 C 3.443,-0.163 3.466,-0.422 3.807,-0.776 c 0.263,0.033 0.582,0.073 0.64,0.081 -0.169,0.281 -0.358,0.596 -0.555,0.924 m -214.87,-2.179 c 0.586,-0.394 1.165,-0.394 1.752,0 -0.587,0.393 -1.166,0.393 -1.752,0 m 4.134,-10.678 c 1.19,-0.4 1.189,-0.389 1.61,0.003 -0.316,0.033 -0.576,0.083 -0.835,0.081 -0.258,-10e-4 -0.517,-0.054 -0.775,-0.084 m -8.94,-14.849 c -0.337,-0.394 -0.801,-0.527 -0.865,-0.921 0.337,-0.209 0.656,-0.225 1.068,0.093 -0.052,0.21 -0.115,0.47 -0.203,0.828 m 169.197,-13.489 c -1.395,0.214 -1.394,0.204 -1.801,-0.123 0.512,-0.236 1.023,-0.236 1.801,0.123 M 7.517,-3.638 c 0.096,-0.411 0.146,-0.621 0.218,-0.93 0.4,0.062 0.723,0.111 1.083,0.166 -0.074,0.315 -0.124,0.526 -0.179,0.764 z m -219.676,-26.573 c -0.279,0.251 -0.477,0.581 -0.957,0.647 -0.245,-0.216 -0.485,-0.427 -0.686,-0.605 0.294,-0.272 0.543,-0.503 0.792,-0.734 0.306,0.249 0.578,0.47 0.851,0.692 m 2.346,18.379 c 0.263,-0.214 0.526,-0.428 0.789,-0.643 0.523,-0.027 1.08,-0.259 1.566,0.213 -0.351,0.095 -0.712,0.137 -0.991,0.282 -0.298,0.154 -0.487,0.456 -0.939,0.377 -0.133,-0.071 -0.279,-0.15 -0.425,-0.229 m 227.245,3.278 c -0.323,0.215 -0.505,0.571 -1.158,0.672 0,-0.536 -0.015,-1.051 0.016,-1.564 0.004,-0.076 0.223,-0.143 0.344,-0.215 0.241,0.317 0.8,0.429 0.798,1.107 m -5.629,0.251 c 1.542,0.008 1.542,0.008 2.173,0.37 -0.354,0.041 -0.618,0.107 -0.875,0.094 -0.64,-0.034 -1.304,0.145 -1.914,-0.125 -0.116,-0.442 -0.328,-0.883 0.217,-1.316 0.119,0.292 0.226,0.553 0.399,0.977 m -233.809,-13.372 c 0.064,-0.258 0.116,-0.472 0.24,-0.978 0.435,0.43 0.696,0.689 0.96,0.949 -0.165,0.12 -2.25,1.177 -2.345,1.158 -0.168,-0.033 -0.322,-0.116 -0.481,-0.179 0.258,-0.668 1.17,-0.601 1.626,-0.95 m 20.573,11.491 c -0.445,-0.084 -0.951,0.161 -1.357,-0.164 0.054,-0.463 0.522,-0.247 0.815,-0.333 0.534,-0.435 1.074,-0.877 1.621,-1.312 0.03,-0.023 0.131,0.013 0.198,0.021 0.134,0.63 0.134,0.63 -1.277,1.788 m -16.186,-11.294 h -1.236 c -0.133,-0.126 -0.28,-0.35 -0.509,-0.457 -0.246,-0.114 -0.736,0.151 -0.775,-0.484 1.017,0 2.03,-0.008 3.041,0.012 0.098,0.002 0.191,0.178 0.286,0.272 -0.276,0.224 -0.541,0.44 -0.807,0.657 m 9.846,-8.94 c -0.261,-0.264 -0.698,-0.411 -0.798,-0.833 0.422,-0.114 0.516,-0.626 1.087,-0.584 1.311,0.799 1.423,0.991 0.825,1.416 -0.371,0 -0.742,0 -1.114,0.001 m -17.072,10.6 c -0.088,0.212 0.232,0.618 0.198,0.617 -0.951,-0.503 -1.516,-0.802 -2.024,-1.071 0.19,-0.502 -0.124,-0.937 0.408,-1.206 0.442,0.082 0.955,-0.167 1.342,0.172 0.294,0.476 -0.135,0.711 -0.485,0.988 0.184,0.163 0.368,0.328 0.561,0.5 m 17.451,9.485 c -0.064,-0.658 0.842,-0.055 0.955,-0.48 0.106,-0.268 0.213,-0.535 0.318,-0.799 0.521,0.097 1.02,-0.143 1.524,0.256 -0.03,0.288 -0.059,0.65 -0.113,1.011 -0.009,0.062 -0.119,0.115 -0.169,0.16 -0.783,0 -1.541,0.004 -2.298,-0.006 -0.071,-10e-4 -0.14,-0.09 -0.217,-0.142 m 207.775,7.68 c -0.655,-0.063 -1.319,0.138 -1.98,-0.165 0.181,-0.232 0.422,-0.438 0.509,-0.681 0.122,-0.34 -0.163,-0.764 0.321,-1.04 0.631,0.061 1.295,-0.14 1.956,0.162 v 1.036 c -0.296,0.252 -0.555,0.474 -0.806,0.688 m -213.364,-20.236 c 0.435,0.08 0.938,-0.16 1.467,0.253 -0.265,0.315 0.302,0.806 -0.338,1.156 h -1.706 c -0.211,-0.156 -0.411,-0.304 -0.599,-0.445 -0.226,0.163 -0.435,0.312 -0.646,0.463 -0.389,-0.021 -0.764,-0.034 -1.136,-0.07 -0.074,-0.007 -0.136,-0.103 -0.219,-0.171 0.621,-0.42 0.976,-1.117 1.911,-1.222 0.238,0.172 0.447,0.323 0.67,0.484 0.19,-0.143 0.39,-0.293 0.596,-0.448 M 3.082,-4.47 c 0.538,0.183 0.863,0.29 1.185,0.403 0.613,0.214 0.926,-0.312 1.493,-0.402 0.043,0.225 0.084,0.437 0.121,0.625 -0.371,0.301 -0.754,0.547 -1.027,0.857 -0.195,0.222 -0.241,0.53 -0.379,0.861 H 3.127 C 2.984,-1.779 2.872,-1.509 2.814,-1.367 2.432,-1.557 2.037,-1.755 1.788,-1.88 1.823,-2.394 1.842,-2.691 1.857,-2.922 2.44,-3.409 3.062,-3.771 3.082,-4.47 m 5.4,-15.068 c -0.691,-0.884 -1.699,-0.319 -2.416,-0.683 -0.458,-0.193 -0.916,-0.387 -1.41,-0.597 0.084,-0.228 0.16,-0.435 0.234,-0.637 0.428,0.2 0.801,0.374 1.136,0.53 0.316,-0.24 0.523,-0.397 0.726,-0.55 h 1.704 c 0.212,0.156 0.412,0.303 0.599,0.44 0.215,-0.147 0.411,-0.282 0.544,-0.374 0.361,0.182 0.663,0.335 0.966,0.488 0.304,-0.2 0.517,-0.34 0.736,-0.485 0.273,0.127 0.548,0.304 0.861,0.387 0.342,0.09 0.72,0.088 1.08,0.14 0.036,0.005 0.052,0.103 0.071,0.145 -0.269,0.228 -0.533,0.452 -0.788,0.668 h -1.154 c -0.208,0.155 -0.409,0.306 -0.599,0.447 -0.224,-0.161 -0.433,-0.312 -0.624,-0.449 -0.58,0.029 -1.205,-0.158 -1.666,0.53 M 3.791,-20 c -0.544,-0.192 -1.054,-0.535 -1.514,-0.496 -0.636,0.054 -0.94,-0.353 -1.431,-0.426 -0.149,0.121 -0.285,0.231 -0.408,0.332 h -6.511 c -0.308,-0.271 -0.563,-0.494 -0.839,-0.737 0.099,-0.223 0.189,-0.427 0.274,-0.618 h 0.64 c 0.202,0.153 0.41,0.31 0.616,0.467 2.881,0 5.76,0 8.639,-10e-4 0.277,0.301 0.771,0.458 0.896,0.954 -0.088,0.126 -0.211,0.306 -0.362,0.525 M 9.939,-1.714 C 8.988,-1.797 9.611,-0.899 9.014,-0.773 8.571,-0.855 8.064,-0.608 7.673,-0.948 7.648,-1.097 7.624,-1.244 7.598,-1.406 8.03,-2.114 8.996,-2.202 9.837,-2.647 c 0.038,0.347 0.07,0.639 0.076,0.932 0.592,0.278 0.592,0.278 0.338,0.901 -0.618,-0.174 -0.232,-0.599 -0.312,-0.9 m 4.534,-16.339 c 0.128,-0.365 0.086,-0.729 0.591,-0.41 -0.157,0.109 -0.315,0.218 -0.525,0.279 v 1.189 c -0.515,0.206 -1.038,0.416 -1.662,0.665 v -1.201 c 0.256,-0.212 0.526,-0.434 0.791,-0.653 0.296,0 0.583,0 0.805,0.131 m -223.708,-9.071 c -0.371,-0.087 -0.892,0.227 -1.107,-0.277 0.765,-0.206 0.765,-0.206 1.046,0.319 0.038,-0.031 0.076,-0.062 0.114,-0.092 0.157,0.109 0.315,0.218 0.472,0.328 -0.061,0.049 -0.122,0.099 -0.182,0.148 -0.135,-0.128 -0.269,-0.256 -0.343,-0.426 m 219.792,8.338 c -0.127,0.365 -0.085,0.729 -0.59,0.41 0.157,-0.109 0.315,-0.219 0.459,-0.147 0.128,-0.366 0.085,-0.73 0.591,-0.411 -0.158,0.11 -0.315,0.219 -0.46,0.148 m -216.161,10.537 c -0.449,-0.104 -0.896,-0.07 -0.504,-0.481 0.134,0.128 0.269,0.257 0.181,0.374 0.449,0.104 0.896,0.069 0.504,0.481 -0.134,-0.129 -0.269,-0.257 -0.181,-0.374 M 25.492,-10.59 c 0.129,0.316 -0.398,0.389 -0.527,0.719 0.248,0.064 0.502,0.129 0.713,0.183 0.741,-0.337 1.022,-0.884 1.295,-1.425 0.198,0.146 0.399,0.293 0.714,0.525 0.1,-0.515 0.184,-0.946 0.277,-1.424 h 1.966 c 0.333,0.271 0.673,0.547 1.104,0.899 0.104,-0.202 0.161,-0.38 0.28,-0.527 0.253,-0.312 0.537,-0.608 0.849,-0.955 0.214,0.375 0.396,0.693 0.567,0.992 h 0.68 c 0.111,-0.261 0.226,-0.533 0.377,-0.89 0.411,-0.024 0.865,-0.051 1.137,-0.067 0.801,-0.605 1.499,-1.132 2.171,-1.639 -0.022,-0.196 -0.038,-0.347 -0.065,-0.588 -0.794,-0.199 -1.649,-0.061 -2.498,-0.108 -0.202,0.15 -0.41,0.306 -0.715,0.534 -0.107,-0.473 -0.203,-0.897 -0.3,-1.322 -0.407,-0.305 -0.912,-0.06 -1.332,-0.155 -0.216,-0.156 -0.416,-0.3 -0.6,-0.432 -0.219,0.147 -0.414,0.279 -0.723,0.487 -0.095,-0.534 -0.172,-0.967 -0.249,-1.403 -0.977,0.262 -1.215,1.199 -2.197,1.355 -0.284,0.419 -0.284,0.419 -0.986,0.373 -0.057,-0.06 -0.162,-0.118 -0.163,-0.178 -0.011,-0.781 -0.007,-1.561 -0.007,-2.292 0.229,-0.213 0.414,-0.385 0.581,-0.541 -0.007,-0.345 0.009,-0.672 -0.612,-0.656 -0.49,0 -1.29,0.741 -1.877,1.788 -0.261,0.055 -0.525,0.102 -0.781,0.171 -0.083,0.022 -0.143,0.101 -0.204,0.146 v 0.484 c -0.275,0.223 -0.547,0.445 -0.819,0.667 -0.74,-0.272 -0.853,-0.908 -1.231,-1.392 -0.414,-0.53 -1.233,-0.517 -1.8,-0.848 -0.136,0.112 -0.273,0.222 -0.413,0.336 -0.522,-0.098 -0.452,-0.468 -0.293,-0.669 0.248,-0.313 0.711,-0.525 0.421,-0.994 -0.596,-0.338 -1.281,-0.093 -1.92,-0.16 -0.211,-0.16 -0.419,-0.318 -0.608,-0.461 -0.593,-0.196 -0.792,0.306 -1.18,0.405 -0.226,-0.151 -0.439,-0.295 -0.744,-0.5 -0.304,0.15 -0.61,0.301 -0.993,0.49 -0.194,-0.145 -0.453,-0.34 -0.729,-0.546 0.065,-0.112 0.093,-0.256 0.196,-0.322 0.844,-0.547 1.927,-0.906 2.971,-1.005 0.432,-0.488 0.112,-1.048 0.213,-1.607 0.372,-0.143 0.767,-0.294 1.14,-0.437 v -0.493 c -0.848,-0.856 -2.261,-0.955 -3.231,-1.656 h -3.429 c -0.154,-0.126 -0.29,-0.237 -0.528,-0.431 H 7.342 c -0.238,-0.194 -0.374,-0.304 -0.51,-0.415 -0.867,-0.255 -1.859,0.162 -2.799,-0.345 0.911,-0.352 1.776,-0.169 2.61,-0.199 0.865,-0.031 1.733,-0.007 2.6,-0.007 h 2.602 2.405 c 0.275,-0.224 0.411,-0.335 0.563,-0.458 h 10.378 c 0.215,-0.164 0.423,-0.322 0.637,-0.484 1.531,0 3.073,0 4.614,0 0.136,-0.111 0.272,-0.222 0.511,-0.416 h 1.734 c 0.239,-0.194 0.375,-0.305 0.554,-0.451 0.408,-0.039 0.863,-0.084 1.401,-0.135 0.056,-0.194 0.116,-0.407 0.241,-0.845 0.241,-0.155 0.691,-0.443 1.115,-0.714 -0.155,-0.876 -1.027,-1.17 -1.564,-1.69 h -1.096 c -0.249,-0.174 -0.461,-0.323 -0.603,-0.423 h -1.714 c -0.256,0.164 -0.446,0.286 -0.732,0.468 -0.081,-0.321 -0.136,-0.535 -0.2,-0.788 -0.538,-0.412 -1.242,-0.093 -1.905,-0.186 -0.197,0.143 -0.408,0.295 -0.63,0.456 -0.238,-0.372 -0.48,-0.75 -0.783,-1.225 0.489,-0.401 1.066,-0.874 1.643,-1.346 -0.641,-0.521 -1.254,-1.021 -1.867,-1.52 -0.535,-0.238 -1.114,-0.077 -1.795,-0.135 -0.132,-0.08 -0.352,-0.212 -0.742,-0.446 h -2.226 c -0.238,-0.194 -0.374,-0.305 -0.612,-0.498 h -5.204 c -0.238,-0.194 -0.374,-0.305 -0.536,-0.437 H 9.697 C 9.475,-38.56 9.265,-38.715 9.037,-38.882 H 0.986 c -0.216,-0.16 -0.422,-0.312 -0.622,-0.458 -0.21,0.154 -0.42,0.309 -0.717,0.527 -0.297,-0.124 -0.614,-0.256 -1.06,-0.444 -0.079,0.05 -0.267,0.169 -0.508,0.322 -0.169,-0.113 -0.364,-0.243 -0.586,-0.392 -0.184,0.132 -0.384,0.276 -0.586,0.421 -0.127,-0.097 -0.264,-0.201 -0.399,-0.304 -0.071,-0.05 -0.142,-0.143 -0.213,-0.143 -3.851,-0.007 -7.703,-0.007 -11.534,-0.007 -0.156,-0.126 -0.293,-0.237 -0.428,-0.348 -0.076,-0.04 -0.152,-0.117 -0.228,-0.117 -5.388,-0.005 -10.776,-0.005 -16.113,-0.005 -0.188,-0.153 -0.324,-0.264 -0.562,-0.457 h -8.734 c -0.109,-0.216 -0.177,-0.35 -0.246,-0.459 -1.49,-0.028 -2.98,-0.08 -4.469,-0.141 -0.04,-10e-4 -0.074,-0.102 -0.111,-0.156 2.169,-0.282 3.031,-0.274 4.58,0.297 0.29,-0.025 0.579,-0.025 0.857,-0.025 0.213,-0.162 0.421,-0.32 0.606,-0.461 0.629,-0.186 0.82,0.329 1.381,0.508 0.225,-0.1 0.538,-0.239 1.071,-0.476 h 6.256 c 0.181,0.147 0.317,0.258 0.549,0.447 h 15.034 c 0.232,0.189 0.368,0.3 0.507,0.412 0.647,0.036 1.302,0.149 1.996,-0.098 0.018,-0.193 0.038,-0.405 0.054,-0.586 -0.111,-0.09 -0.178,-0.194 -0.247,-0.194 -3.077,-0.008 -6.155,-0.007 -9.218,-0.007 -0.224,-0.169 -0.431,-0.324 -0.631,-0.474 -0.201,0.147 -0.402,0.293 -0.602,0.439 -0.154,-0.125 -0.29,-0.236 -0.504,-0.41 -0.174,0.108 -0.36,0.224 -0.627,0.391 h -1.805 c -0.241,-0.046 -0.404,-0.606 -1.062,-0.414 -0.165,0.119 -0.375,0.271 -0.597,0.431 -0.192,-0.144 -0.396,-0.295 -0.603,-0.449 h -20.202 c -0.206,-0.154 -0.41,-0.306 -0.613,-0.457 -0.144,0.117 -0.281,0.228 -0.508,0.414 -0.167,-0.103 -0.349,-0.213 -0.626,-0.383 h -2.374 c -0.172,0.141 -0.309,0.252 -0.485,0.394 -0.191,-0.129 -0.387,-0.261 -0.606,-0.408 -0.185,0.134 -0.386,0.28 -0.588,0.426 -0.128,-0.099 -0.264,-0.205 -0.403,-0.313 -0.164,-0.047 -0.332,-0.138 -0.5,-0.138 -6.448,-0.007 -12.896,-0.006 -19.318,-0.006 -0.219,-0.159 -0.42,-0.305 -0.607,-0.441 -0.233,0.163 -0.445,0.311 -0.597,0.418 -0.674,0.193 -0.823,-0.391 -1.472,-0.471 -0.181,0.093 -0.483,0.249 -0.835,0.429 -0.141,-0.098 -0.339,-0.237 -0.505,-0.353 h -61.983 c -0.2,0.163 -0.337,0.274 -0.491,0.399 -0.2,-0.146 -0.401,-0.292 -0.615,-0.449 h -1.711 c -0.205,0.156 -0.413,0.314 -0.604,0.458 h -1.133 c -0.235,-0.17 -0.445,-0.322 -0.605,-0.438 h -4.057 c -0.164,0.134 -0.3,0.245 -0.477,0.388 -0.267,-0.133 -0.546,-0.272 -0.944,-0.471 -0.252,0.135 -0.551,0.295 -0.887,0.476 -0.15,-0.109 -0.351,-0.254 -0.567,-0.411 h -1.133 c -0.198,0.148 -0.403,0.3 -0.599,0.445 -0.215,-0.157 -0.425,-0.31 -0.722,-0.526 -0.297,0.126 -0.612,0.26 -1.029,0.438 -0.168,-0.084 -0.448,-0.223 -0.846,-0.422 -0.251,0.135 -0.55,0.295 -0.867,0.465 -0.233,-0.134 -0.515,-0.298 -0.881,-0.509 -0.318,0.204 -0.594,0.38 -0.862,0.551 -0.212,-0.154 -0.422,-0.307 -0.72,-0.524 -0.297,0.127 -0.612,0.262 -1.256,0.536 h -6.73 c -0.109,0.215 -0.177,0.349 -0.244,0.483 h 1.431 c 0.208,0.155 0.41,0.305 0.611,0.455 0.149,-0.121 0.286,-0.232 0.422,-0.342 4.186,-0.225 11.116,-0.176 13.11,0.091 -0.043,0.056 -0.071,0.142 -0.131,0.16 -0.167,0.051 -0.348,0.102 -0.524,0.102 -3.357,0.006 -6.714,0.004 -10.004,0.004 -0.202,0.165 -0.339,0.275 -0.572,0.466 h -5.782 c -0.234,0.19 -0.37,0.301 -0.603,0.49 h -7.517 c -0.233,0.189 -0.369,0.3 -0.6,0.489 h -8.674 c -0.232,0.188 -0.368,0.299 -0.521,0.424 h -3.434 c -0.215,0.162 -0.423,0.318 -0.64,0.482 h -2.287 c -0.211,0.16 -0.419,0.318 -0.633,0.48 h -4.019 c -0.145,0.119 -0.281,0.23 -0.507,0.413 -0.928,0.139 -1.976,-0.026 -3.001,0.09 -0.136,0.111 -0.272,0.222 -0.507,0.413 h -4.048 c -0.235,0.191 -0.371,0.302 -0.558,0.453 -0.186,-0.122 -0.379,-0.248 -0.606,-0.398 -0.18,0.126 -0.378,0.265 -0.604,0.423 h -2.905 c -0.222,0.213 -0.47,0.45 -0.733,0.701 0.051,0.055 0.139,0.236 0.234,0.238 1.148,0.028 2.298,0.027 3.448,0.046 0.069,0.002 0.136,0.104 0.201,0.157 -0.13,0.396 -0.586,0.222 -0.878,0.334 -0.34,0.277 -0.68,0.553 -1.055,0.858 -0.194,-0.132 -0.39,-0.267 -0.623,-0.427 h -2.866 c -0.177,0.133 -0.385,0.289 -0.604,0.454 h -1.707 c -0.212,0.16 -0.42,0.318 -0.637,0.482 h -1.108 c -0.232,0.169 -0.442,0.321 -0.664,0.483 h -1.682 c -0.265,0.415 -0.513,0.802 -0.772,1.206 0.122,0.109 0.305,0.273 0.487,0.435 -0.389,0.388 -0.908,0.145 -1.382,0.225 -0.399,-0.309 -0.811,-0.628 -1.214,-0.941 h -1.148 c -0.665,0.501 -0.147,0.812 0.339,1.205 -0.721,0.326 -1.44,0.191 -2.108,0.142 -0.216,-0.138 -0.405,-0.258 -0.701,-0.447 -0.061,0.332 -0.101,0.545 -0.147,0.8 0.365,0.104 0.699,0.199 1.111,0.317 -0.143,0.218 -0.28,0.427 -0.424,0.645 0.409,0.347 0.926,0.022 1.306,0.182 0.254,-0.185 0.455,-0.332 0.722,-0.527 0.092,0.256 0.168,0.465 0.241,0.669 -0.666,0.294 -1.371,0.48 -1.784,1.07 0.344,0.098 0.733,0.135 1,0.302 0.308,0.193 0.553,0.421 1.024,0.326 0.618,-0.285 0.085,-0.85 0.41,-1.266 0.268,-0.278 0.686,-0.069 1.041,-0.13 v -1.226 c 0.229,-0.071 0.478,-0.148 0.668,-0.207 0.723,0.194 0.876,0.892 1.62,0.965 0.629,0.063 0.92,0.453 1.181,0.845 0.065,0.743 -1.142,0.817 -1.156,1.505 h 0.938 c 0.069,0.186 0.113,0.401 0.227,0.589 0.141,0.231 0.34,0.438 0.512,0.653 -0.321,0.24 -0.577,0.432 -0.811,0.607 -0.329,-0.25 -0.606,-0.461 -0.866,-0.659 v -1.19 c -0.164,0.055 -0.328,0.11 -0.535,0.179 v 1.515 c 0.059,0.212 0.789,0.328 0.362,1.018 -0.061,0.052 -0.32,0.275 -0.583,0.501 -0.595,-0.096 -0.742,-0.627 -1.555,-0.842 h -0.806 c -0.219,-0.163 -0.427,-0.318 -0.673,-0.501 -0.276,0.29 -0.606,0.563 -0.823,0.885 -0.298,0.441 -0.443,0.958 -0.782,1.373 -0.312,0.383 -0.795,0.675 -1.228,1.028 h -1.816 c -0.308,0.314 -0.663,0.678 -0.945,0.966 h -0.807 c -0.085,0.191 -0.175,0.396 -0.311,0.704 0.444,0.277 0.897,0.559 1.246,0.777 v 1.084 c 0.192,0.171 0.379,0.338 0.558,0.497 -0.192,0.174 -0.381,0.344 -0.538,0.487 -0.083,0.404 0.153,0.816 -0.301,1.172 -0.197,-0.342 -0.377,-0.656 -0.567,-0.988 -0.258,0.412 -0.5,0.797 -0.783,1.245 0.102,0.095 0.275,0.257 0.453,0.423 -0.178,0.158 -0.365,0.324 -0.547,0.487 v 0.937 c 0.159,0.078 0.311,0.219 0.466,0.219 2.291,0.015 4.582,0.01 6.757,0.01 0.25,0.204 0.386,0.314 0.621,0.506 h 2.469 c -0.109,0.572 -0.692,0.734 -0.995,1.087 0.088,0.094 0.179,0.276 0.273,0.277 1.533,0.018 3.066,0.012 4.6,0.012 0.202,0.334 0.392,0.648 0.632,1.044 0.766,-0.321 1.479,-0.619 2.228,-0.932 0.69,0.286 1.465,0.607 2.27,0.941 0.243,-0.422 0.428,-0.744 0.602,-1.046 h 0.61 c 0.489,0.302 0.194,0.727 0.299,1.157 0.205,0.178 0.46,0.401 0.743,0.647 0.431,0.041 0.886,0.084 1.326,0.125 0.08,0.066 0.206,0.12 0.208,0.177 0.014,0.624 0.008,1.249 0.008,1.867 0.194,0.173 0.382,0.339 0.568,0.505 -0.276,0.224 -0.548,0.446 -0.831,0.677 -0.202,-0.151 -0.404,-0.301 -0.612,-0.456 -0.47,0 -0.95,0 -1.341,-0.015 -0.178,0.211 -0.337,0.46 -0.505,0.464 -0.424,0.01 -0.912,0.167 -1.291,-0.186 0.478,-0.501 1.144,-0.171 1.796,-0.278 -0.32,-0.375 -0.551,-0.766 -0.855,-1.281 -0.162,-0.047 -0.496,-0.142 -0.88,-0.252 -0.049,-0.352 -0.1,-0.722 -0.152,-1.094 -0.392,-0.348 -0.905,-0.1 -1.351,-0.182 -0.209,0.157 -0.417,0.314 -0.631,0.475 h -1.208 c -0.084,0.191 -0.175,0.396 -0.317,0.718 0.649,0.429 1.314,0.868 1.823,1.205 v 0.675 c -0.385,0.373 -0.895,0.185 -1.346,0.216 -0.382,0.027 -0.769,0.005 -1.153,0.005 h -1.403 c -0.092,-0.644 0.472,-0.342 0.97,-0.912 -0.083,0.199 -0.006,-0.082 0.155,-0.327 0.064,-0.098 0.312,-0.117 0.476,-0.172 v -1.629 c 0.188,-0.162 0.38,-0.327 0.683,-0.588 -0.411,-0.057 -0.737,-0.103 -1.128,-0.158 -0.077,0.314 -0.129,0.525 -0.189,0.773 -0.431,0.352 -0.901,0.734 -1.333,1.085 -0.304,0.049 -0.563,0.091 -0.903,0.146 v 1.506 c -0.365,0.311 -0.627,0.534 -0.877,0.747 h -1.164 c -0.695,-0.489 -0.029,-1.181 -0.384,-1.721 -0.162,-0.054 -0.325,-0.108 -0.487,-0.161 v 1.153 c -0.18,0.156 -0.368,0.32 -0.606,0.527 0.408,0.29 0.823,0.585 1.33,0.945 -0.199,0.277 -0.391,0.509 -0.538,0.759 -0.146,0.252 -0.247,0.523 -0.362,0.772 -0.574,0.167 -0.633,0.143 -0.981,-0.392 -0.16,-0.051 -0.437,-0.082 -0.458,-0.158 -0.079,-0.282 0.177,-0.329 0.458,-0.312 0.056,-0.498 -0.647,-0.539 -0.768,-0.98 -0.477,0.365 -0.88,0.672 -1.293,0.988 h -1.279 c -0.043,0.26 -0.086,0.528 -0.13,0.799 1.629,0.177 2.93,0.656 3.834,1.627 0.636,-0.256 1.113,-0.449 1.533,-0.618 0.93,0.553 -0.12,1.449 0.727,1.93 0.273,-0.222 0.546,-0.443 0.818,-0.665 -0.21,-0.312 -0.84,-0.469 -0.382,-1.093 0.622,-0.27 1.494,-0.033 2.51,-0.129 0.245,0.201 0.569,0.467 0.755,0.621 0.164,0.903 -0.83,0.97 -0.989,1.601 0.131,0.114 0.375,0.328 0.6,0.524 1.118,0.52 1.867,-0.694 3.238,-0.185 -0.024,-0.014 0.269,0.158 0.655,0.384 0.311,-0.188 0.598,-0.362 0.936,-0.567 h 1.609 c 0.317,0.197 0.603,0.374 0.75,0.465 0.77,0.012 0.984,-0.766 1.779,-0.368 0.045,0.15 0.11,0.362 0.18,0.593 -0.305,0.221 -0.59,0.428 -0.938,0.681 -0.821,0.356 -1.434,-0.398 -2.212,-0.467 -0.244,0.184 -0.452,0.342 -0.657,0.496 -0.202,-0.153 -0.409,-0.31 -0.603,-0.457 -0.812,-0.136 -1.216,0.858 -2.424,0.319 0.078,0.048 -0.139,-0.087 -0.393,-0.245 -0.249,0.12 -0.534,0.257 -0.939,0.453 -0.25,-0.14 -0.546,-0.304 -0.919,-0.512 -0.178,0.201 -0.396,0.449 -0.646,0.732 0.25,0.099 0.607,0.239 0.96,0.378 -0.14,0.395 -0.608,0.208 -0.886,0.346 -0.206,0.1 -0.377,0.246 -0.558,0.369 -0.195,-0.159 -0.331,-0.27 -0.498,-0.406 -0.195,0.136 -0.394,0.274 -0.724,0.504 h -2.727 c 0.352,0.082 2.471,0.581 2.599,0.611 -0.447,0.177 -0.806,0.319 -1.169,0.464 0.366,0.625 1.298,-0.039 1.758,0.602 -0.945,0.279 -1.896,0.088 -2.814,0.147 -0.813,0.052 -1.666,-0.138 -2.801,0.267 1.173,0.302 2.032,0.159 2.845,0.203 0.359,0.218 0.706,0.431 1.092,0.667 -1.051,0.568 -2.087,-0.022 -2.985,0.461 0.175,0.172 0.338,0.331 0.536,0.526 -0.378,0.145 -0.758,0.291 -1.132,0.436 v 0.495 c 0.469,0.196 0.946,0.396 1.63,0.683 h 1.463 c 0.224,0.164 0.434,0.315 0.669,0.485 h 5.733 c 0.217,0.164 0.424,0.322 0.636,0.483 h 12.129 c 0.139,0.112 0.275,0.224 0.542,0.441 1.665,0.084 3.475,-0.021 5.271,0.054 0.141,0.115 0.278,0.226 0.515,0.419 h 12.142 c 0.237,0.192 0.373,0.303 0.608,0.495 h 20.816 c 0.236,0.191 0.372,0.302 0.602,0.489 h 63.026 c 0.23,0.186 0.366,0.298 0.529,0.43 h 18.511 c 0.16,-0.115 0.371,-0.268 0.583,-0.421 0.271,0.167 0.551,0.34 0.888,0.549 0.352,-0.22 0.636,-0.397 0.942,-0.587 h 55.444 c 0.15,-0.123 0.286,-0.234 0.523,-0.427 h 9.252 c 0.237,-0.192 0.374,-0.304 0.612,-0.497 h 3.468 C -8.07,8.921 -7.934,8.809 -7.76,8.668 h 4.168 C -3.123,8.194 -2.586,7.65 -2.156,7.215 H 0.385 C 1.07,6.693 0.497,6.396 0.095,6.058 V 5.13 C -0.63,4.671 -0.976,3.809 -2.152,3.89 -2.072,3.38 -1.633,3.071 -1.31,3.029 -0.733,2.956 -0.546,2.841 -0.449,2.353 -0.387,2.044 0.123,1.794 0.331,1.607 1.443,1.44 1.068,2.223 1.499,2.488 1.688,2.358 1.885,2.223 2.117,2.064 H 3.816 C 4.135,2.16 4.227,2.592 4.709,2.52 4.773,2.39 4.809,2.165 4.905,2.147 5.251,2.083 5.308,2.291 5.287,2.52 5.64,2.467 5.822,2.642 5.855,2.877 5.898,3.193 5.83,3.495 5.287,3.461 5.221,3.594 5.161,3.838 5.088,3.841 4.262,3.872 3.736,4.709 2.454,4.289 2.387,4.236 2.075,3.989 1.788,3.76 2.049,3.5 2.204,3.344 2.441,3.106 2.064,3.044 1.803,3.002 1.576,2.964 0.858,3.424 1.534,4.031 1.24,4.514 1.067,4.735 0.894,4.955 0.636,5.284 H 2.014 C 3.126,6.03 1.467,6.35 1.818,6.934 2.464,7.288 2.464,7.29 3.201,6.815 3.454,6.945 3.725,7.085 4.097,7.276 4.432,7.116 4.81,6.935 5.308,6.698 5.552,6.831 5.846,6.992 6.213,7.193 6.283,7.037 6.482,6.824 6.422,6.686 6.236,6.256 5.906,5.896 5.32,5.748 5.226,6.048 5.268,6.412 4.763,6.093 4.92,5.984 5.078,5.874 5.32,5.748 5.077,5.063 5.907,4.617 6.107,3.983 6.193,3.709 6.404,3.462 6.62,3.099 6.816,3.043 7.213,3.009 7.467,2.835 7.777,2.623 8.042,2.442 8.459,2.529 c 0.548,-0.45 1.088,-0.892 1.69,-1.386 0.187,0.119 0.376,0.24 0.591,0.377 0.614,0.079 1.281,0.209 1.741,-0.391 h 1.749 c 0.163,0.119 0.372,0.271 0.634,0.461 0.22,-0.23 0.451,-0.47 0.792,-0.826 v -0.873 c 0.383,-0.232 0.839,-0.51 1.186,-0.721 v -1.286 c 0.535,-0.357 1.195,-0.798 1.84,-1.229 -0.135,-0.317 -0.222,-0.521 -0.318,-0.746 -0.254,0.185 -0.457,0.333 -0.651,0.475 -0.2,-0.145 -0.4,-0.288 -0.598,-0.43 -0.292,0.237 -0.563,0.458 -0.838,0.681 v 0.478 c -0.473,0.375 -0.952,0.755 -1.433,1.137 -0.325,-0.084 -0.414,-0.513 -0.883,-0.435 0.02,0.475 -0.525,0.618 -0.837,0.881 -0.125,0.105 -0.496,0.017 -0.707,0.017 -0.446,-0.686 -0.034,-1.178 0.294,-1.683 -0.407,-0.317 -0.914,-0.07 -1.36,-0.163 -0.432,-0.568 -0.548,-1.32 -1.767,-1.607 0.645,-0.175 0.974,-0.264 1.302,-0.354 0.122,-0.271 0.245,-0.541 0.378,-0.836 0.153,0.109 0.355,0.184 0.368,0.277 0.042,0.303 0.016,0.613 0.016,0.875 0.432,0.408 0.948,0.162 1.408,0.243 0.201,-0.152 0.409,-0.308 0.625,-0.472 h 2.284 c 0.208,-0.155 0.411,-0.307 0.604,-0.451 0.207,0.146 0.406,0.286 0.602,0.424 0.367,-0.298 0.673,-0.763 1.054,-0.807 0.607,-0.071 0.916,-0.498 1.451,-0.573 0.28,-0.039 0.575,-0.006 0.891,-0.006 0.194,0.142 0.403,0.296 0.639,0.47 h 0.535 c 0.192,0 0.387,-0.014 0.575,0.007 0.078,0.009 0.135,0.104 0.215,0.141 0.534,0.249 1.071,0.492 1.614,0.74 0.116,-0.094 0.252,-0.205 0.45,-0.366 h 1.488 c 0.661,-0.295 1.198,-0.534 1.736,-0.773 -0.547,-0.445 -1.303,-0.816 -1.573,-1.349 -0.265,-0.523 -0.576,-0.911 -1.107,-1.223 -0.645,-0.062 -0.877,0.185 -0.761,0.719 -0.266,0.195 -0.55,0.403 -0.871,0.64 H 21.661 C 21.519,-7.739 21.4,-8.01 21.264,-8.321 c -0.251,0.183 -0.451,0.329 -0.666,0.485 h -1.743 c -0.24,-0.209 -0.502,-0.437 -0.806,-0.702 0.359,-0.143 0.725,-0.287 1.081,-0.429 -0.11,-0.293 -0.64,-0.366 -0.543,-0.747 -0.892,0.161 -1.44,-0.489 -2.189,-0.617 0.183,-0.368 0.344,-0.748 0.567,-1.103 0.059,-0.094 0.305,-0.11 0.432,-0.097 0.095,-0.299 0.053,-0.663 0.558,-0.344 -0.157,0.109 -0.315,0.218 -0.558,0.344 0.033,0.161 0.033,0.389 0.033,0.687 0.356,0.278 0.761,0.586 1.15,0.907 0.047,0.039 0.007,0.147 0.007,0.223 h 1.515 c 0.102,0.25 0.212,0.52 0.323,0.791 0.523,0.222 1.042,0.252 1.601,-0.047 -0.166,-0.163 -0.327,-0.321 -0.495,-0.485 0.163,-0.307 0.748,-0.476 0.52,-0.948 -0.186,-0.163 -0.38,-0.33 -0.573,-0.498 v -1.166 c -0.193,0 -0.386,0 -0.546,-0.066 -0.094,0.3 -0.052,0.664 -0.557,0.345 0.157,-0.11 0.315,-0.219 0.557,-0.345 -0.207,-0.18 -0.382,-0.426 -0.562,-0.679 0.636,-0.518 1.303,-1.061 2.045,-1.665 0.397,0.58 0.088,1.213 0.35,1.753 0.182,0.246 0.391,0.502 0.424,0.771 0.027,0.222 -0.201,0.41 -0.555,0.356 0.071,0.443 -0.166,0.914 0.228,1.387 0.199,-0.129 0.388,-0.252 0.622,-0.403 0.172,0.117 0.366,0.249 0.604,0.41 0.175,-0.303 0.351,-0.607 0.514,-0.889 0.319,0.151 0.621,0.293 0.89,0.502 0.096,-0.299 0.053,-0.663 0.558,-0.344 -0.157,0.109 -0.315,0.219 -0.558,0.344"
          style="display:inline;fill:#f8a30d;fill-opacity:1;fill-rule:nonzero;stroke:none" id="path695" />
      </g>
    </g>
  </g>
</svg>